<svg version="1.0" xmlns="http://www.w3.org/2000/svg"
     width="1445.000000pt" height="328.000000pt" viewBox="0 0 1445.000000 328.000000"
     preserveAspectRatio="xMidYMid meet">

    <g transform="translate(0.000000,328.000000) scale(0.100000,-0.100000)"
       fill="#1c1c24" stroke="none">
        <path d="M1460 3194 c-14 -2 -56 -9 -95 -15 -248 -38 -526 -165 -730 -334
-170 -141 -247 -262 -253 -396 -4 -67 -1 -82 23 -129 57 -112 201 -222 440
-336 276 -132 634 -269 808 -310 42 -10 76 -22 74 -28 -2 -6 -55 -25 -118 -43
-319 -91 -796 -293 -985 -419 -209 -138 -282 -275 -229 -434 79 -239 467 -519
850 -614 159 -39 268 -50 443 -43 249 10 415 52 637 162 316 156 551 397 711
728 64 134 67 153 22 160 -79 11 -288 -33 -428 -90 -167 -69 -288 -152 -423
-292 -92 -96 -151 -179 -212 -301 -20 -41 -39 -77 -41 -79 -11 -12 -214 -52
-291 -58 -331 -22 -437 214 -217 481 171 207 589 472 934 591 192 66 486 136
691 165 47 6 91 15 99 20 16 10 16 138 1 153 -6 6 -74 20 -153 32 -358 56
-695 166 -1022 333 -401 205 -641 427 -663 613 -14 114 51 211 163 242 98 28
219 20 384 -24 l75 -20 40 -82 c152 -311 455 -557 791 -642 115 -30 245 -48
278 -39 40 10 33 36 -44 190 -187 374 -492 643 -879 778 -170 59 -272 77 -476
81 -99 2 -191 2 -205 -1z"/>
        <path d="M12797 3014 c-10 -10 -9 -772 1 -778 4 -2 51 -8 102 -11 244 -18 374
64 396 246 24 205 -132 349 -319 295 -33 -10 -68 -28 -86 -46 -16 -17 -32 -30
-36 -30 -3 0 -5 73 -4 163 l2 162 -24 3 c-14 2 -28 0 -32 -4z m304 -305 c45
-16 96 -65 110 -107 19 -57 15 -151 -8 -203 -37 -84 -108 -119 -238 -119 -119
0 -118 -1 -113 156 6 178 33 237 125 270 47 16 80 17 124 3z"/>
        <path d="M3898 2959 c-31 -18 -38 -79 -38 -354 0 -294 6 -340 46 -355 14 -6
126 -10 250 -10 250 0 238 -4 213 70 -18 50 -55 60 -219 60 l-140 0 0 85 0 85
155 0 155 0 11 27 c13 34 2 80 -21 93 -10 6 -82 10 -160 10 l-141 0 3 88 3 87
130 2 c72 1 140 2 153 3 36 0 72 43 72 85 l0 35 -227 0 c-133 0 -235 -5 -245
-11z"/>
        <path d="M6107 2952 c-15 -17 -17 -57 -17 -365 l0 -347 70 0 70 0 0 359 c0
399 5 371 -69 371 -24 0 -44 -7 -54 -18z"/>
        <path d="M9543 2963 c-16 -11 -15 -3 -14 -380 l1 -343 173 0 c169 0 175 1 228
28 70 35 101 88 101 171 0 79 -31 134 -95 167 l-28 15 35 32 c63 60 73 174 19
237 -51 61 -92 73 -258 77 -82 2 -155 0 -162 -4z m276 -64 c67 -14 101 -53
101 -115 0 -107 -46 -137 -210 -138 l-115 -1 -3 119 c-1 66 0 126 2 133 7 16
152 18 225 2z m12 -319 c105 -20 157 -114 113 -205 -28 -60 -73 -75 -225 -75
l-127 0 -1 135 c-1 75 1 140 4 145 8 13 168 13 236 0z"/>
        <path d="M11242 2928 c-9 -9 -12 -100 -12 -350 l0 -338 35 0 35 0 0 130 c0 72
3 130 7 130 15 0 124 -90 210 -173 88 -85 93 -88 133 -85 l41 3 -73 79 c-40
44 -107 107 -148 139 -41 33 -75 63 -75 67 0 4 54 47 120 95 66 47 128 92 139
100 24 18 12 35 -24 35 -29 0 -79 -30 -240 -149 l-85 -62 -3 188 c-2 185 -6
202 -37 203 -6 0 -16 -5 -23 -12z"/>
        <path d="M12392 2928 c-7 -7 -12 -43 -12 -90 l0 -78 -45 0 c-33 0 -47 -5 -52
-16 -8 -23 23 -44 63 -44 l32 0 4 -193 c3 -210 7 -226 65 -264 38 -25 154 -24
183 2 20 18 26 45 14 58 -4 3 -19 0 -35 -8 -47 -25 -96 -19 -130 14 l-29 29 0
181 0 181 95 0 95 0 0 30 0 30 -95 0 -95 0 0 84 c0 67 -3 85 -16 90 -22 8 -28
8 -42 -6z"/>
        <path d="M13962 2928 c-9 -9 -12 -100 -12 -350 l0 -338 35 0 35 0 0 344 c0
304 -2 345 -16 350 -22 8 -28 8 -42 -6z"/>
        <path d="M14172 2928 c-9 -9 -12 -95 -12 -350 l0 -338 35 0 35 0 -2 348 c-3
339 -3 347 -23 350 -11 1 -26 -3 -33 -10z"/>
        <path d="M5157 2785 c-31 -8 -71 -22 -87 -30 l-30 -16 0 -249 0 -250 70 0 70
0 0 214 c0 213 0 214 23 220 31 8 138 6 162 -3 29 -12 45 6 45 50 0 30 -5 42
-26 55 -34 23 -153 28 -227 9z"/>
        <path d="M5612 2782 c-73 -27 -122 -69 -157 -137 -26 -51 -30 -68 -29 -134 2
-82 11 -116 50 -173 53 -76 176 -126 277 -113 107 15 181 66 230 159 33 63 31
193 -5 261 -50 95 -128 144 -242 151 -53 4 -84 0 -124 -14z m166 -106 c111
-58 121 -254 16 -322 -33 -22 -109 -22 -151 -1 -109 57 -102 274 11 323 41 17
90 17 124 0z"/>
        <path d="M6505 2782 c-65 -21 -134 -90 -158 -157 -19 -56 -22 -160 -7 -217 16
-55 69 -118 121 -145 92 -48 268 -50 329 -5 29 22 37 68 18 95 -13 17 -15 17
-47 1 -47 -23 -165 -24 -207 -1 -36 19 -84 72 -84 93 0 11 26 14 140 14 165 0
209 12 234 65 33 69 9 165 -53 218 -65 54 -189 71 -286 39z m174 -97 c54 -27
67 -116 19 -129 -13 -3 -69 -6 -125 -6 -97 0 -103 1 -103 20 0 41 49 108 90
123 29 11 91 7 119 -8z"/>
        <path d="M7741 2787 c-104 -15 -178 -64 -224 -151 -18 -34 -21 -58 -22 -136 0
-87 3 -100 30 -150 68 -124 242 -160 347 -72 l31 27 -6 -59 c-9 -89 -46 -131
-130 -147 -49 -8 -135 4 -179 26 -39 19 -58 6 -58 -40 0 -63 72 -97 206 -97
79 0 102 4 149 26 64 29 100 64 129 126 20 42 21 65 24 336 l4 291 -29 8 c-50
12 -218 20 -272 12z m143 -103 c25 -10 22 -204 -4 -262 -31 -68 -123 -98 -192
-61 -59 32 -78 161 -37 246 28 58 74 82 156 83 34 0 68 -3 77 -6z"/>
        <path d="M8913 2786 c-132 -43 -203 -158 -191 -310 6 -74 44 -155 87 -185 67
-48 121 -64 216 -64 136 1 196 32 186 98 -6 38 -19 45 -59 27 -55 -23 -169
-22 -212 4 -32 19 -80 76 -80 95 0 5 61 9 136 9 161 0 209 11 235 54 21 35 25
109 8 153 -14 38 -56 81 -104 105 -50 26 -163 33 -222 14z m178 -115 c36 -36
41 -94 10 -111 -11 -5 -70 -10 -132 -10 l-111 0 6 32 c14 73 72 118 149 118
40 0 54 -5 78 -29z"/>
        <path d="M6993 2771 c-47 -22 -60 -50 -44 -94 12 -31 21 -33 61 -12 42 21 140
30 182 16 44 -15 66 -38 74 -79 l6 -32 -105 1 c-157 1 -223 -24 -253 -97 -49
-117 29 -218 189 -244 71 -11 284 3 301 20 13 13 2 379 -13 415 -17 41 -48 73
-96 98 -59 31 -242 36 -302 8z m254 -291 c23 0 24 -2 21 -72 l-3 -73 -70 -3
c-83 -4 -109 2 -135 28 -24 24 -27 82 -5 100 23 19 75 29 124 24 24 -2 55 -4
68 -4z"/>
        <path d="M4446 2764 c-23 -23 -23 -347 -1 -402 33 -78 95 -117 208 -132 71 -9
178 -5 247 9 l35 7 3 261 2 261 -22 6 c-13 3 -36 6 -53 6 -60 0 -60 0 -65
-227 l-5 -208 -62 -3 c-76 -4 -126 17 -151 62 -14 25 -17 63 -19 195 -2 119
-6 167 -15 173 -22 13 -86 9 -102 -8z"/>
        <path d="M8146 2764 c-13 -13 -16 -44 -16 -181 0 -182 8 -224 52 -277 47 -58
119 -79 263 -78 66 0 136 5 155 9 l35 9 3 259 c2 200 -1 260 -10 267 -7 4 -32
8 -55 8 -70 0 -73 -11 -73 -242 l0 -198 -60 0 c-72 0 -119 17 -148 55 -21 26
-22 38 -22 200 0 171 0 173 -22 179 -41 11 -86 6 -102 -10z"/>
        <path d="M10250 2771 c-55 -12 -80 -29 -80 -56 0 -34 12 -37 58 -15 45 22 124
26 183 10 49 -14 89 -59 96 -108 l5 -40 -143 -4 c-123 -2 -149 -6 -179 -23
-50 -30 -71 -72 -71 -146 -1 -76 17 -104 87 -139 44 -23 60 -25 174 -25 69 1
142 4 163 8 l37 8 0 182 c0 102 -5 199 -11 222 -14 49 -67 101 -117 115 -52
14 -160 20 -202 11z m244 -267 c13 -5 16 -24 16 -109 0 -122 6 -117 -133 -117
-117 -1 -161 16 -183 68 -28 67 3 133 72 154 34 10 205 13 228 4z"/>
        <path d="M10830 2774 c-60 -12 -91 -27 -120 -60 -24 -28 -30 -44 -30 -80 0
-96 44 -130 206 -158 50 -9 106 -21 123 -27 64 -22 73 -101 17 -143 -44 -33
-153 -34 -246 -3 -41 14 -78 23 -82 20 -16 -9 -7 -43 16 -58 39 -26 164 -47
235 -40 81 8 120 24 154 64 23 27 27 42 27 91 0 51 -4 62 -29 88 -30 29 -101
54 -191 67 -76 10 -128 26 -145 45 -26 29 -22 77 8 108 23 22 37 27 97 30 78
5 148 -10 184 -39 21 -16 25 -17 36 -4 36 43 -45 93 -162 99 -40 3 -84 2 -98
0z"/>
        <path d="M11923 2766 c-125 -41 -194 -143 -193 -285 2 -179 149 -289 337 -251
74 15 105 34 101 63 -3 25 -9 25 -88 2 -89 -26 -176 -8 -227 47 -24 25 -55
102 -46 112 4 3 78 6 166 6 216 0 247 16 247 129 0 69 -35 130 -91 158 -56 29
-150 38 -206 19z m193 -89 c28 -30 34 -45 34 -79 0 -54 -8 -66 -51 -78 -39
-12 -287 -12 -294 0 -3 4 1 28 9 53 31 103 98 151 205 144 58 -3 66 -6 97 -40z"/>
        <path d="M13520 2774 c-69 -13 -107 -44 -94 -78 8 -20 3 -20 55 4 87 39 224
17 264 -43 9 -14 19 -41 22 -61 l6 -36 -132 1 c-119 0 -137 -2 -179 -23 -67
-34 -87 -66 -87 -141 1 -85 21 -118 87 -148 45 -20 69 -23 168 -23 63 -1 137
3 163 7 l49 8 -4 197 c-3 187 -4 199 -27 240 -33 57 -100 90 -196 96 -38 2
-81 2 -95 0z m228 -270 c21 -6 22 -11 22 -109 0 -123 7 -117 -139 -118 -134
-1 -191 32 -191 111 0 26 23 92 33 92 1 0 20 7 42 15 40 14 190 20 233 9z"/>
        <path d="M162 2173 c-120 -331 -120 -727 -1 -1055 12 -32 27 -58 34 -58 8 0
18 22 25 52 6 29 21 71 34 93 74 125 331 289 621 395 50 18 94 37 99 41 10 9
3 12 -134 65 -246 95 -401 184 -516 299 -54 53 -76 84 -92 128 -12 32 -22 67
-22 77 0 40 -28 18 -48 -37z"/>
        <path d="M8155 1996 c-65 -28 -113 -116 -100 -184 14 -81 95 -152 172 -152 69
0 138 42 170 104 22 42 14 133 -16 174 -45 64 -151 91 -226 58z"/>
        <path d="M3987 1890 c-53 -14 -84 -37 -96 -72 -8 -21 -11 -269 -11 -769 l0
-739 165 0 165 0 0 778 0 779 -42 12 c-57 17 -136 22 -181 11z"/>
        <path d="M7221 1816 c-64 -23 -76 -51 -79 -197 l-4 -129 -92 0 -93 0 -12 -40
c-18 -60 -16 -146 3 -176 23 -33 54 -44 132 -44 l64 0 0 -293 c0 -316 7 -381
48 -465 69 -141 201 -201 410 -189 103 6 177 27 263 73 78 43 78 42 12 147
l-58 93 -55 -25 c-113 -51 -237 -33 -277 41 -16 29 -18 65 -21 326 l-3 292
180 0 c212 0 205 -4 206 121 0 124 -26 139 -247 139 l-138 0 0 158 0 159 -51
11 c-64 15 -144 14 -188 -2z"/>
        <path d="M8800 1808 c-58 -30 -69 -61 -69 -205 l-1 -113 -91 0 -90 0 -15 -35
c-16 -39 -19 -131 -4 -169 14 -37 59 -56 134 -56 l64 0 4 -327 c4 -286 7 -334
23 -378 59 -161 165 -232 362 -242 118 -7 207 10 309 59 106 50 106 51 38 161
l-58 94 -55 -25 c-113 -52 -237 -34 -278 40 -16 30 -18 61 -18 323 l0 290 178
3 178 2 16 37 c10 25 14 58 11 100 -7 107 -38 123 -251 123 l-138 0 1 143 c1
78 1 149 0 158 0 10 -17 19 -51 27 -80 19 -149 15 -199 -10z"/>
        <path d="M11101 1816 c-64 -23 -76 -51 -79 -197 l-4 -129 -89 0 -90 0 -15 -35
c-18 -43 -20 -144 -5 -174 19 -34 64 -51 136 -51 l65 0 0 -287 c1 -159 3 -306
6 -328 17 -131 86 -240 184 -290 131 -66 349 -59 503 16 109 53 109 51 41 162
l-58 94 -55 -25 c-113 -52 -237 -34 -278 40 -16 30 -18 61 -18 323 l0 290 180
5 180 5 12 35 c19 55 16 130 -7 167 -26 44 -67 53 -232 53 l-138 0 0 158 0
159 -51 11 c-64 15 -144 14 -188 -2z"/>
        <path d="M4890 1523 c-141 -13 -290 -46 -387 -84 l-53 -21 0 -554 0 -554 160
0 160 0 0 455 0 454 71 22 c57 17 88 21 162 17 135 -6 200 -46 237 -145 19
-50 20 -78 20 -428 l0 -375 160 0 160 0 0 413 c0 339 -3 423 -15 464 -62 209
-250 329 -530 337 -60 1 -126 1 -145 -1z"/>
        <path d="M12325 1515 c-98 -18 -220 -77 -292 -139 -65 -58 -126 -154 -159
-253 -36 -105 -45 -293 -20 -407 66 -295 296 -450 656 -441 134 3 303 32 378
65 l42 19 -26 68 c-14 37 -33 87 -42 111 -19 48 -11 47 -122 16 -47 -12 -102
-18 -195 -18 -113 0 -138 3 -189 23 -33 13 -79 42 -104 64 -40 37 -82 102 -82
126 0 5 117 11 293 13 320 5 356 11 434 67 111 80 134 285 52 450 -32 64 -115
149 -178 180 -115 59 -302 82 -446 56z m247 -231 c80 -40 121 -102 122 -185 1
-68 -20 -104 -69 -118 -20 -5 -132 -10 -250 -11 l-215 -1 0 29 c0 120 102 261
218 299 47 16 151 9 194 -13z"/>
        <path d="M6115 1510 c-88 -14 -193 -55 -250 -98 -36 -27 -60 -56 -85 -106 -30
-60 -35 -80 -38 -155 -4 -106 19 -180 78 -240 76 -78 170 -111 398 -141 188
-24 224 -33 264 -69 44 -39 43 -93 0 -132 -87 -78 -374 -58 -573 40 l-75 37
-57 -102 c-31 -55 -57 -106 -57 -113 0 -18 152 -86 245 -110 112 -29 204 -41
321 -41 268 0 441 76 524 232 28 53 35 76 38 143 5 93 -6 143 -46 206 -61 96
-181 144 -442 179 -200 26 -230 33 -270 66 -24 20 -30 34 -30 64 0 31 7 44 35
68 43 39 83 47 215 47 80 -1 123 -6 180 -24 84 -26 160 -62 179 -85 20 -23 33
-20 68 17 41 43 53 69 53 115 0 124 -172 201 -470 208 -80 1 -172 -1 -205 -6z"/>
        <path d="M8173 1481 c-52 -13 -81 -38 -92 -78 -7 -24 -11 -230 -11 -565 l0
-528 160 0 160 0 2 575 3 575 -35 10 c-52 15 -151 20 -187 11z"/>
        <path d="M9669 1478 c-21 -5 -48 -21 -60 -35 l-24 -25 -3 -336 c-2 -217 1
-360 8 -402 25 -146 112 -262 243 -324 102 -48 198 -68 368 -73 131 -5 408 9
467 24 l22 5 0 574 0 574 -27 12 c-16 6 -66 11 -113 12 -97 0 -144 -17 -161
-61 -6 -16 -10 -189 -9 -444 0 -230 -3 -420 -8 -422 -18 -12 -160 -16 -224 -7
-71 10 -151 44 -179 76 -9 11 -27 39 -40 64 -24 44 -24 50 -29 410 l-5 365
-50 11 c-61 15 -128 15 -176 2z"/>
    </g>
</svg>
